<svg width="80" height="80" viewBox="0 0 80 80" fill="none" xmlns="http://www.w3.org/2000/svg">
<g filter="url(#filter0_d_809_10514)">
<rect x="10" y="10" width="60" height="60" rx="13" fill="#FCE33E"/>
<path d="M33.5408 39.5149H36.3054L34.9231 35.6133L33.5408 39.5149Z" fill="black"/>
<path d="M40 19C26.7446 19 16 27.4153 16 37.7975C16 44.5096 20.4931 50.4057 27.25 53.725C26.8831 54.9835 24.8869 61.8263 24.8085 62.365C24.8085 62.365 24.76 62.7685 25.0231 62.9221C25.1111 62.9662 25.2073 62.992 25.3057 62.9979C25.4041 63.0038 25.5027 62.9897 25.5954 62.9565C26.3523 62.851 34.3646 57.269 35.7492 56.3085C37.1576 56.5028 38.5781 56.5986 40 56.5951C53.2554 56.5951 64 48.1797 64 37.7975C64 27.4153 53.2554 19 40 19ZM28.1223 34.8793C28.0923 37.5385 28.1454 40.3352 28.1015 42.9531C28.0877 43.7898 27.6031 44.0397 26.9477 44.2781C26.8736 44.3041 26.7939 44.3097 26.7169 44.2942C25.9669 44.1474 25.3692 43.8815 25.3508 42.9554C25.2977 40.3398 25.3669 37.5385 25.33 34.8793C24.6954 34.8541 23.7908 34.9046 23.2023 34.8793C22.3854 34.8266 21.8177 34.3108 21.8523 33.5429C21.8869 32.7749 22.3 32.2225 23.2162 32.2087C25.3808 32.1766 28.0623 32.1766 30.2269 32.2087C31.15 32.2225 31.5608 32.7772 31.5885 33.5429C31.6162 34.3085 31.0577 34.8266 30.2431 34.8793C29.6615 34.9046 28.7592 34.8541 28.1223 34.8793ZM39.7531 44.152C39.4763 44.2772 39.1757 44.3421 38.8715 44.3423C38.2946 44.3423 37.8538 44.1131 37.7177 43.7348L37.0254 41.9513H32.8115L32.1192 43.7348C31.9854 44.1085 31.5446 44.3423 30.9654 44.3423C30.662 44.3423 30.3621 44.2774 30.0862 44.152C29.7031 43.9778 29.3362 43.4964 29.7562 42.1989L33.0769 33.5383C33.2162 33.1568 33.4656 32.8246 33.794 32.5832C34.1224 32.3418 34.5151 32.202 34.9231 32.1812C35.3307 32.2042 35.7227 32.3452 36.0508 32.5867C36.3788 32.8282 36.6285 33.1598 36.7692 33.5406L40.0785 42.1966C40.5008 43.4964 40.1338 43.987 39.7531 44.152ZM46.75 44.152H42.3077C41.9637 44.1588 41.6309 44.03 41.3823 43.7937C41.1336 43.5574 40.9892 43.2329 40.9808 42.8912V33.5566C40.9955 33.1941 41.1509 32.8512 41.4144 32.5999C41.6778 32.3485 42.0289 32.2081 42.3942 32.2081C42.7595 32.2081 43.1106 32.3485 43.3741 32.5999C43.6376 32.8512 43.7929 33.1941 43.8077 33.5566V41.6373H46.75C46.9231 41.6269 47.0965 41.6518 47.2596 41.7105C47.4227 41.7692 47.5719 41.8604 47.6982 41.9784C47.8245 42.0965 47.9251 42.239 47.9939 42.3972C48.0626 42.5554 48.0981 42.7258 48.0981 42.8981C48.0981 43.0704 48.0626 43.2408 47.9939 43.399C47.9251 43.5571 47.8245 43.6996 47.6982 43.8177C47.5719 43.9358 47.4227 44.027 47.2596 44.0857C47.0965 44.1444 46.9231 44.1693 46.75 44.1589V44.152ZM57.5962 43.1159C57.5601 43.3872 57.4434 43.6417 57.261 43.8468C57.0786 44.0518 56.8387 44.1982 56.5721 44.2671C56.3055 44.336 56.0243 44.3244 55.7643 44.2336C55.5044 44.1429 55.2777 43.9772 55.1131 43.7577L51.8662 39.487L51.3862 39.9638V42.9646C51.3862 43.3294 51.2403 43.6792 50.9806 43.9372C50.7209 44.1951 50.3688 44.34 50.0015 44.34C49.6343 44.34 49.2821 44.1951 49.0225 43.9372C48.7628 43.6792 48.6169 43.3294 48.6169 42.9646V33.5658C48.6169 33.201 48.7628 32.8512 49.0225 32.5932C49.2821 32.3353 49.6343 32.1904 50.0015 32.1904C50.3688 32.1904 50.7209 32.3353 50.9806 32.5932C51.2403 32.8512 51.3862 33.201 51.3862 33.5658V36.5138L55.2492 32.6764C55.3504 32.577 55.4704 32.4987 55.6023 32.446C55.7343 32.3932 55.8755 32.3671 56.0177 32.3692C56.3634 32.3782 56.6937 32.5138 56.945 32.7498C57.1963 32.9859 57.3509 33.3059 57.3792 33.6483C57.3917 33.8011 57.3711 33.9548 57.319 34.0991C57.2669 34.2434 57.1843 34.375 57.0769 34.4851L53.9154 37.6187L57.3238 42.1049C57.5445 42.3959 57.6399 42.762 57.5892 43.1228L57.5962 43.1159Z" fill="#3B1F1E"/>
</g>
<defs>
<filter id="filter0_d_809_10514" x="0" y="0" width="80" height="80" filterUnits="userSpaceOnUse" color-interpolation-filters="sRGB">
<feFlood flood-opacity="0" result="BackgroundImageFix"/>
<feColorMatrix in="SourceAlpha" type="matrix" values="0 0 0 0 0 0 0 0 0 0 0 0 0 0 0 0 0 0 127 0" result="hardAlpha"/>
<feOffset/>
<feGaussianBlur stdDeviation="5"/>
<feColorMatrix type="matrix" values="0 0 0 0 0 0 0 0 0 0 0 0 0 0 0 0 0 0 0.05 0"/>
<feBlend mode="normal" in2="BackgroundImageFix" result="effect1_dropShadow_809_10514"/>
<feBlend mode="normal" in="SourceGraphic" in2="effect1_dropShadow_809_10514" result="shape"/>
</filter>
</defs>
</svg>
