<svg width="80" height="80" viewBox="0 0 80 80" fill="none" xmlns="http://www.w3.org/2000/svg">
<g filter="url(#filter0_d_1784_899)">
<rect x="10" y="10" width="60" height="60" rx="13" fill="white"/>
<path d="M39.9974 22.2042C44.2129 22.2037 48.3057 23.6233 51.6154 26.234C54.9252 28.8447 57.2589 32.4943 58.2402 36.594C59.2214 40.6938 58.7929 45.0045 57.0238 48.8308C55.2547 52.6571 52.2481 55.7759 48.4892 57.684C47.8868 57.9898 47.6464 58.726 47.9521 59.3284C48.2579 59.9307 48.9941 60.1712 49.5965 59.8654C53.8458 57.7084 57.2445 54.1829 59.2443 49.8575C61.2442 45.5321 61.7286 40.6591 60.6193 36.0246C59.5101 31.3902 56.872 27.2645 53.1305 24.3132C49.389 21.362 44.7624 19.7572 39.9971 19.7578C35.2317 19.7584 30.6055 21.3644 26.8648 24.3166C23.1241 27.2688 20.487 31.3951 19.379 36.0299C18.2709 40.6646 18.7566 45.5375 20.7575 49.8624C22.7585 54.1873 26.1581 57.712 30.4079 59.8679C31.0103 60.1735 31.7465 59.9328 32.0521 59.3304C32.3577 58.7279 32.1171 57.9918 31.5146 57.6861C27.7552 55.779 24.7479 52.661 22.9778 48.8351C21.2077 45.0093 20.7781 40.6987 21.7583 36.5987C22.7385 32.4987 25.0713 28.8485 28.3804 26.237C31.6895 23.6254 35.7819 22.2047 39.9974 22.2042Z" fill="url(#paint0_linear_1784_899)"/>
<path d="M48.5544 30.0509C46.1123 28.1359 43.0982 27.0958 39.9948 27.097C36.8914 27.0982 33.8782 28.1407 31.4376 30.0575C28.9969 31.9744 27.2701 34.6548 26.5335 37.6695C25.7969 40.6842 26.0932 43.8589 27.375 46.6852C28.6567 49.5116 30.8497 51.8261 33.6029 53.2582C34.2022 53.57 34.4353 54.3085 34.1236 54.9078C33.8119 55.5072 33.0733 55.7403 32.474 55.4285C29.2349 53.7437 26.6549 51.0207 25.147 47.6956C23.6391 44.3705 23.2905 40.6356 24.157 37.0889C25.0236 33.5421 27.0552 30.3888 29.9265 28.1336C32.7978 25.8785 36.3428 24.652 39.9939 24.6506C43.6449 24.6492 47.1909 25.8729 50.0639 28.1258C52.937 30.3787 54.971 33.5305 55.8403 37.0766C56.7096 40.6226 56.3639 44.3578 54.8586 47.6841C53.3533 51.0104 50.7753 53.7354 47.5376 55.4227C46.9385 55.7349 46.1998 55.5024 45.8876 54.9033C45.5753 54.3042 45.8079 53.5655 46.407 53.2533C49.1591 51.819 51.3503 49.5028 52.6298 46.6755C53.9094 43.8481 54.2032 40.6732 53.4643 37.6591C52.7254 34.6449 50.9965 31.9659 48.5544 30.0509Z" fill="url(#paint1_linear_1784_899)"/>
<path d="M39.9953 31.9897C41.9891 31.9886 43.9264 32.6517 45.5012 33.8744C47.0761 35.097 48.1987 36.8095 48.6918 38.7414C49.1849 40.6732 49.0203 42.7142 48.2241 44.5421C47.4278 46.37 46.0453 47.8805 44.2949 48.835C43.7018 49.1584 43.4832 49.9014 43.8066 50.4945C44.13 51.0876 44.873 51.3062 45.4661 50.9828C47.6939 49.7679 49.4535 47.8455 50.4669 45.5191C51.4803 43.1927 51.6897 40.595 51.0622 38.1364C50.4346 35.6777 49.0058 33.4981 47.0015 31.942C44.9971 30.3859 42.5314 29.5419 39.9939 29.5433C37.4564 29.5448 34.9917 30.3916 32.9891 31.95C30.9865 33.5084 29.5602 35.6896 28.9354 38.149C28.3107 40.6084 28.5231 43.2059 29.5392 45.5311C30.5552 47.8563 32.317 49.7767 34.5462 50.989C35.1397 51.3118 35.8824 51.0923 36.2051 50.4988C36.5279 49.9054 36.3084 49.1626 35.715 48.8399C33.9634 47.8874 32.5792 46.3785 31.7809 44.5515C30.9825 42.7245 30.8156 40.6837 31.3065 38.7513C31.7974 36.8189 32.918 35.1051 34.4915 33.8807C36.065 32.6562 38.0015 31.9909 39.9953 31.9897Z" fill="url(#paint2_linear_1784_899)"/>
<path d="M42.4502 37.701C41.7415 37.1681 40.8784 36.8807 39.9918 36.8825C39.1051 36.8842 38.2432 37.1749 37.5366 37.7105C36.83 38.2462 36.3172 38.9976 36.0761 39.8508C35.8349 40.7041 35.8785 41.6127 36.2002 42.4389C36.5219 43.2652 37.1041 43.9641 37.8587 44.4297C38.4336 44.7844 38.6121 45.538 38.2574 46.113C37.9027 46.6879 37.149 46.8664 36.5741 46.5116C35.3668 45.7667 34.4352 44.6485 33.9205 43.3265C33.4058 42.0044 33.3361 40.5507 33.7219 39.1855C34.1078 37.8203 34.9281 36.6181 36.0587 35.761C37.1892 34.904 38.5683 34.4388 39.987 34.4361C41.4057 34.4333 42.7866 34.8931 43.9205 35.7457C45.0543 36.5984 45.8793 37.7974 46.2705 39.1611C46.6617 40.5247 46.5976 41.9788 46.0881 43.3028C45.5785 44.6268 44.6513 45.7486 43.4469 46.4983C42.8733 46.8552 42.119 46.6797 41.762 46.1061C41.4051 45.5326 41.5806 44.7783 42.1542 44.4213C42.9069 43.9528 43.4865 43.2517 43.8049 42.4242C44.1234 41.5966 44.1634 40.6879 43.9189 39.8356C43.6745 38.9833 43.1588 38.2339 42.4502 37.701Z" fill="url(#paint3_linear_1784_899)"/>
<path d="M41.6308 40.9597C41.6308 41.8605 40.9007 42.5907 39.9999 42.5907C39.0992 42.5907 38.369 41.8605 38.369 40.9597C38.369 40.059 39.0992 39.3288 39.9999 39.3288C40.9007 39.3288 41.6308 40.059 41.6308 40.9597Z" fill="url(#paint4_linear_1784_899)"/>
</g>
<defs>
<filter id="filter0_d_1784_899" x="0" y="0" width="80" height="80" filterUnits="userSpaceOnUse" color-interpolation-filters="sRGB">
<feFlood flood-opacity="0" result="BackgroundImageFix"/>
<feColorMatrix in="SourceAlpha" type="matrix" values="0 0 0 0 0 0 0 0 0 0 0 0 0 0 0 0 0 0 127 0" result="hardAlpha"/>
<feOffset/>
<feGaussianBlur stdDeviation="5"/>
<feColorMatrix type="matrix" values="0 0 0 0 0 0 0 0 0 0 0 0 0 0 0 0 0 0 0.05 0"/>
<feBlend mode="normal" in2="BackgroundImageFix" result="effect1_dropShadow_1784_899"/>
<feBlend mode="normal" in="SourceGraphic" in2="effect1_dropShadow_1784_899" result="shape"/>
</filter>
<linearGradient id="paint0_linear_1784_899" x1="52.2316" y1="23.0185" x2="33.4368" y2="57.2929" gradientUnits="userSpaceOnUse">
<stop stop-color="#1F97F5"/>
<stop offset="1" stop-color="#007AFF"/>
</linearGradient>
<linearGradient id="paint1_linear_1784_899" x1="52.2316" y1="23.0185" x2="33.4368" y2="57.2929" gradientUnits="userSpaceOnUse">
<stop stop-color="#1F97F5"/>
<stop offset="1" stop-color="#007AFF"/>
</linearGradient>
<linearGradient id="paint2_linear_1784_899" x1="52.2316" y1="23.0185" x2="33.4368" y2="57.2929" gradientUnits="userSpaceOnUse">
<stop stop-color="#1F97F5"/>
<stop offset="1" stop-color="#007AFF"/>
</linearGradient>
<linearGradient id="paint3_linear_1784_899" x1="52.2316" y1="23.0185" x2="33.4368" y2="57.2929" gradientUnits="userSpaceOnUse">
<stop stop-color="#1F97F5"/>
<stop offset="1" stop-color="#007AFF"/>
</linearGradient>
<linearGradient id="paint4_linear_1784_899" x1="52.2316" y1="23.0185" x2="33.4368" y2="57.2929" gradientUnits="userSpaceOnUse">
<stop stop-color="#1F97F5"/>
<stop offset="1" stop-color="#007AFF"/>
</linearGradient>
</defs>
</svg>
