<svg width="128" height="128" viewBox="0 0 128 128" fill="none" xmlns="http://www.w3.org/2000/svg">
<g filter="url(#filter0_d_13_396)">
<path d="M64 120C97.1371 120 124 93.1371 124 60C124 26.8629 97.1371 0 64 0C30.8629 0 4 26.8629 4 60C4 93.1371 30.8629 120 64 120Z" fill="#A2A2DC"/>
<path fill-rule="evenodd" clip-rule="evenodd" d="M123.904 63.4316C122.125 94.972 95.9854 120 64 120C63.7846 120 63.5694 119.999 63.3545 119.997L27.6719 80.9766L32.9184 78.0469L19.8203 62.8125L53.4531 60.5763L45.4141 51.2109L52.0373 33.0469L76.5391 60.5763L83.9332 59.9653L79.2862 55.3183L86.4818 33.0469L94.8203 42.0703L99.9376 37.3828L123.904 63.4316Z" fill="#CACAF2"/>
<path d="M104.202 64.8484L23.7977 64.8484C21.1202 64.8484 18.9492 62.6774 18.9492 59.9999C18.9492 57.3224 21.1202 55.1514 23.7977 55.1514L104.202 55.1514C106.879 55.1514 109.05 57.3224 109.05 59.9999C109.05 62.6774 106.879 64.8484 104.202 64.8484Z" fill="white"/>
<path d="M18.9698 59.5957C18.9588 59.7295 18.9492 59.8631 18.9492 59.9998C18.9492 62.6773 21.1202 64.8483 23.7977 64.8483H104.202C106.879 64.8483 109.05 62.6773 109.05 59.9998C109.05 59.8631 109.041 59.7295 109.03 59.5957L18.9698 59.5957Z" fill="#E9EDF5"/>
<path d="M74.3125 37.6172C74.3125 33.7987 77.408 30.7031 81.2266 30.7031C85.0451 30.7031 88.1406 33.7987 88.1406 37.6172L88.1406 81.4453C88.1406 85.2638 85.0451 88.3594 81.2266 88.3594C77.408 88.3594 74.3125 85.2638 74.3125 81.4453L74.3125 37.6172Z" fill="#555A66"/>
<path d="M39.8594 37.6172C39.8594 33.7987 42.9549 30.7031 46.7734 30.7031C50.592 30.7031 53.6875 33.7987 53.6875 37.6172L53.6875 81.4453C53.6875 85.2638 50.592 88.3594 46.7734 88.3594C42.9549 88.3594 39.8594 85.2638 39.8594 81.4453L39.8594 37.6172Z" fill="#555A66"/>
<path d="M26.0312 42.5391C26.0312 38.7205 29.1268 35.625 32.9453 35.625C36.7638 35.625 39.8594 38.7205 39.8594 42.5391L39.8594 76.5234C39.8594 80.342 36.7638 83.4375 32.9453 83.4375C29.1268 83.4375 26.0313 80.342 26.0313 76.5234L26.0312 42.5391Z" fill="#636978"/>
<path d="M88.1406 42.3047C88.1406 38.4862 91.2362 35.3906 95.0547 35.3906C98.8732 35.3906 101.969 38.4862 101.969 42.3047L101.969 76.2891C101.969 80.1076 98.8732 83.2031 95.0547 83.2031C91.2362 83.2031 88.1406 80.1076 88.1406 76.2891L88.1406 42.3047Z" fill="#636978"/>
<path fill-rule="evenodd" clip-rule="evenodd" d="M74.3125 59.5312L74.3125 81.4453C74.3125 85.2638 77.408 88.3593 81.2266 88.3593C85.0451 88.3593 88.1406 85.2638 88.1406 81.4453L88.1406 59.5312L74.3125 59.5312Z" fill="#333940"/>
<path fill-rule="evenodd" clip-rule="evenodd" d="M39.8594 59.5312L39.8594 81.4453C39.8594 85.2638 42.9549 88.3594 46.7734 88.3594C50.592 88.3594 53.6875 85.2638 53.6875 81.4453L53.6875 59.5312L39.8594 59.5312Z" fill="#333940"/>
<path fill-rule="evenodd" clip-rule="evenodd" d="M26.0312 59.5312L26.0313 76.5234C26.0313 80.342 29.1268 83.4375 32.9453 83.4375C36.7638 83.4375 39.8594 80.342 39.8594 76.5234L39.8594 59.5312L26.0312 59.5312Z" fill="#414952"/>
<path fill-rule="evenodd" clip-rule="evenodd" d="M88.1406 59.5312L88.1406 76.5234C88.1406 80.342 91.2362 83.4375 95.0547 83.4375C98.8732 83.4375 101.969 80.342 101.969 76.5234L101.969 59.5312L88.1406 59.5312Z" fill="#414952"/>
</g>
<defs>
<filter id="filter0_d_13_396" x="0" y="0" width="128" height="128" filterUnits="userSpaceOnUse" color-interpolation-filters="sRGB">
<feFlood flood-opacity="0" result="BackgroundImageFix"/>
<feColorMatrix in="SourceAlpha" type="matrix" values="0 0 0 0 0 0 0 0 0 0 0 0 0 0 0 0 0 0 127 0" result="hardAlpha"/>
<feOffset dy="4"/>
<feGaussianBlur stdDeviation="2"/>
<feComposite in2="hardAlpha" operator="out"/>
<feColorMatrix type="matrix" values="0 0 0 0 0 0 0 0 0 0 0 0 0 0 0 0 0 0 0.25 0"/>
<feBlend mode="normal" in2="BackgroundImageFix" result="effect1_dropShadow_13_396"/>
<feBlend mode="normal" in="SourceGraphic" in2="effect1_dropShadow_13_396" result="shape"/>
</filter>
</defs>
</svg>
